<?xml version="1.0" encoding="UTF-8" standalone="no"?>
<svg
   xmlns:dc="http://purl.org/dc/elements/1.1/"
   xmlns:cc="http://creativecommons.org/ns#"
   xmlns:rdf="http://www.w3.org/1999/02/22-rdf-syntax-ns#"
   xmlns:svg="http://www.w3.org/2000/svg"
   xmlns="http://www.w3.org/2000/svg"
   xmlns:sodipodi="http://sodipodi.sourceforge.net/DTD/sodipodi-0.dtd"
   xmlns:inkscape="http://www.inkscape.org/namespaces/inkscape"
   version="1.1"
   id="svg2"
   xml:space="preserve"
   width="750.4267"
   height="132.48"
   viewBox="0 0 750.4267 132.48"
   sodipodi:docname="Lindex_red_CMYK.eps"><metadata
     id="metadata8"><rdf:RDF><cc:Work
         rdf:about=""><dc:format>image/svg+xml</dc:format><dc:type
           rdf:resource="http://purl.org/dc/dcmitype/StillImage" /></cc:Work></rdf:RDF></metadata><defs
     id="defs6" /><sodipodi:namedview
     pagecolor="#ffffff"
     bordercolor="#666666"
     borderopacity="1"
     objecttolerance="10"
     gridtolerance="10"
     guidetolerance="10"
     inkscape:pageopacity="0"
     inkscape:pageshadow="2"
     inkscape:window-width="640"
     inkscape:window-height="480"
     id="namedview4" /><g
     id="g10"
     inkscape:groupmode="layer"
     inkscape:label="ink_ext_XXXXXX"
     transform="matrix(1.3333333,0,0,-1.3333333,0,132.48)"><g
       id="g12"
       transform="scale(0.1)"><path
         d="m 146.055,138.965 h 441.34 V 23.7578 H 0 V 978.324 H 146.055 V 138.965"
         style="fill:#ed114c;fill-opacity:1;fill-rule:nonzero;stroke:none"
         id="path14" /><path
         d="M 912.035,978.25 H 1061.74 V 24.0625 H 912.035 V 978.25"
         style="fill:#ed114c;fill-opacity:1;fill-rule:nonzero;stroke:none"
         id="path16" /><path
         d="m 1440.03,24.0508 h 120.83 V 691.195 L 2325.15,0 V 24.0508 978.234 H 2204.1 L 2203.76,296.25 1440.03,993.406 V 24.0508"
         style="fill:#ed114c;fill-opacity:1;fill-rule:nonzero;stroke:none"
         id="path18" /><path
         d="m 2854.46,133.086 h 210.03 c 326.84,14.93 364.66,249.746 364.66,367.586 0,213.414 -99.43,365.168 -371.58,376.5 h -203.11 z m -143.55,845.148 h 352.99 c 374.65,-15.578 526.31,-246.351 526.31,-477.257 0,-244.825 -199.68,-476.9145 -514.35,-476.9145 H 2710.91 V 978.234"
         style="fill:#ed114c;fill-opacity:1;fill-rule:nonzero;stroke:none"
         id="path20" /><path
         d="M 5210.76,534.738 5628.24,22.5859 5440.71,21.8438 5121.04,428.207 4789.14,24.1289 h -158.56 l 417.69,493.7541 -382.13,461.613 h 186.67 l 281.57,-357.887 290.52,356.715 h 156.93 L 5210.76,534.738"
         style="fill:#ed114c;fill-opacity:1;fill-rule:nonzero;stroke:none"
         id="path22" /><path
         d="m 4386.19,849.219 c -33.06,21.844 -116.62,38.398 -153.07,38.398 -111.64,0 -200.47,-52.75 -209.11,-178.683 -5.26,-99.965 35.57,-181.782 118.87,-191.411 0,0 -137.78,-15.664 -121.38,-204.359 8.91,-115.41 82.5,-169.277 181.12,-180.078 62.19,-7.082 148.61,2.344 204.66,39.863 V 46.3477 C 4348.15,18.9063 4275.9,11.1797 4210.17,11.1797 3991.84,9.42188 3870.71,128.965 3870.71,299.785 c 0,86.707 43.32,189.27 138.3,218.91 -81.04,44.727 -123.51,120.641 -123.51,224.364 0,146.031 134.64,261.531 322.9,249.757 70.58,-4.347 139.75,-16.113 177.79,-31.273 V 849.219"
         style="fill:#ed114c;fill-opacity:1;fill-rule:nonzero;stroke:none"
         id="path24" /></g></g></svg>
