<?xml version="1.0" encoding="UTF-8" standalone="no"?>
<svg
   xmlns:dc="http://purl.org/dc/elements/1.1/"
   xmlns:cc="http://creativecommons.org/ns#"
   xmlns:rdf="http://www.w3.org/1999/02/22-rdf-syntax-ns#"
   xmlns:svg="http://www.w3.org/2000/svg"
   xmlns="http://www.w3.org/2000/svg"
   xmlns:sodipodi="http://sodipodi.sourceforge.net/DTD/sodipodi-0.dtd"
   xmlns:inkscape="http://www.inkscape.org/namespaces/inkscape"
   version="1.1"
   id="svg2"
   xml:space="preserve"
   width="1122.52"
   height="793.70667"
   viewBox="0 0 1122.52 793.70667"
   sodipodi:docname="mango_logo_vector (1).ai"><metadata
     id="metadata8"><rdf:RDF><cc:Work
         rdf:about=""><dc:format>image/svg+xml</dc:format><dc:type
           rdf:resource="http://purl.org/dc/dcmitype/StillImage" /></cc:Work></rdf:RDF></metadata><defs
     id="defs6"><clipPath
       clipPathUnits="userSpaceOnUse"
       id="clipPath42"><path
         d="M 0,595.28 H 841.89 V 0 H 0 Z"
         id="path40" /></clipPath></defs><sodipodi:namedview
     pagecolor="#ffffff"
     bordercolor="#666666"
     borderopacity="1"
     objecttolerance="10"
     gridtolerance="10"
     guidetolerance="10"
     inkscape:pageopacity="0"
     inkscape:pageshadow="2"
     inkscape:window-width="640"
     inkscape:window-height="480"
     id="namedview4" /><g
     id="g10"
     inkscape:groupmode="layer"
     inkscape:label="mango_logo_vector (1)"
     transform="matrix(1.3333333,0,0,-1.3333333,0,793.70667)"><g
       id="g12"
       transform="translate(255.4224,298.9893)"><path
         d="M 0,0 6.14,-9.758 18.536,9.979 V -33.742 H 29.194 V 29.861 H 18.316 Z"
         style="fill:#2e2e2d;fill-opacity:1;fill-rule:nonzero;stroke:none"
         id="path14" /></g><g
       id="g16"
       transform="translate(225.5,328.8506)"><path
         d="m 0,0 h -10.78 v -63.604 h 10.694 v 43.708 l 24.273,-38.798 6.176,9.892 z"
         style="fill:#2e2e2d;fill-opacity:1;fill-rule:nonzero;stroke:none"
         id="path18" /></g><g
       id="g20"
       transform="translate(351.0239,284.9707)"><path
         d="M 0,0 9.88,-19.724 H 22.742 L -9.543,43.88 h -11.582 l -0.013,-0.037 16.161,-33.718 h -21.462 l 5.589,10.995 -5.84,11.949 -27.186,-52.793 h 12.029 l 10.168,19.711 z"
         style="fill:#2e2e2d;fill-opacity:1;fill-rule:nonzero;stroke:none"
         id="path22" /></g><g
       id="g24"
       transform="translate(448.8662,328.8506)"><path
         d="M 0,0 H -10.688 V -30.902 L 0,-41.627 Z"
         style="fill:#2e2e2d;fill-opacity:1;fill-rule:nonzero;stroke:none"
         id="path26" /></g><g
       id="g28"
       transform="translate(397.2427,328.8506)"><path
         d="M 0,0 H -10.872 V -63.604 H -0.19 v 47.529 l 43.844,-47.529 h 7.957 v 7.75 z"
         style="fill:#2e2e2d;fill-opacity:1;fill-rule:nonzero;stroke:none"
         id="path30" /></g><g
       id="g32"
       transform="translate(465.921,300.0177)"><path
         d="M 0,0 V 0.037 Z"
         style="fill:#2e2e2d;fill-opacity:1;fill-rule:nonzero;stroke:none"
         id="path34" /></g><g
       id="g36"><g
         id="g38"
         clip-path="url(#clipPath42)"><g
           id="g44"
           transform="translate(526.4648,311.208)"><path
             d="m 0,0 c -5.094,5.277 -12.93,8.668 -21.77,8.668 -14.054,0 -25.662,-8.644 -27.509,-19.846 H -61.07 c 1.531,17.41 19.32,30.216 39.461,30.216 11.961,0 22.711,-4.456 29.97,-11.631 z"
             style="fill:#2e2e2d;fill-opacity:1;fill-rule:nonzero;stroke:none"
             id="path46" /></g><g
           id="g48"
           transform="translate(503.7041,274.1357)"><path
             d="m 0,0 c -11.717,0 -21.708,6.366 -25.466,15.255 h -11.999 c 3.98,-15.317 19.614,-25.564 38.138,-25.564 4.31,0 9.256,0.441 13.37,1.456 9.28,2.278 19.431,8.338 19.431,17.851 V 25.906 H -0.11 L -0.159,15.255 H 22.735 V 10.443 C 22.735,5.093 14.765,2.02 9.88,0.942 7.272,0.33 3.905,0 1.163,0 Z"
             style="fill:#2e2e2d;fill-opacity:1;fill-rule:nonzero;stroke:none"
             id="path50" /></g><g
           id="g52"
           transform="translate(628.084,296.9937)"><path
             d="m 0,0 c 0,18.965 -17.215,33.669 -38.347,33.669 -20.483,0 -38.456,-14.031 -38.456,-32.641 0,-17.569 14.117,-31.636 33.143,-33.853 v 10.616 c -12.44,2.032 -21.842,11.349 -21.842,22.527 0,12.697 12.096,22.981 27.008,22.981 14.926,0 27.01,-10.284 27.01,-22.981 0,-11.092 -9.256,-20.336 -21.549,-22.479 V -32.799 C -14.791,-30.596 0,-17.055 0,0"
             style="fill:#2e2e2d;fill-opacity:1;fill-rule:nonzero;stroke:none"
             id="path54" /></g></g></g></g></svg>
