<svg width="1162" height="231" viewBox="0 0 1162 231" fill="none" xmlns="http://www.w3.org/2000/svg">
<path d="M52 13L0 192.992C336.541 205.662 1033.83 231 1033.83 231C1033.83 231 1147.24 14.1694 1161 2.95404C1172 -6.01826 428.155 9.26154 52 13Z" fill="#FFE749"/>
<path d="M91.44 134.18L73.44 77.93H83.52L95.31 117.35L106.29 77.93H116.1L98.28 134.18H91.44ZM134.82 135.08C130.2 135.08 126.6 134 124.02 131.84C121.5 129.68 120.24 126.83 120.24 123.29C120.24 118.85 122.22 115.19 126.18 112.31C130.2 109.37 136.02 107.9 143.64 107.9C144.06 107.9 144.6 107.9 145.26 107.9C145.98 107.9 146.73 107.93 147.51 107.99C147.09 104.51 146.1 102.17 144.54 100.97C142.98 99.71 140.88 99.08 138.24 99.08C136.32 99.08 134.52 99.41 132.84 100.07C131.16 100.67 129.48 101.81 127.8 103.49L122.22 97.37C124.62 95.15 127.23 93.56 130.05 92.6C132.87 91.64 135.75 91.16 138.69 91.16C142.17 91.16 145.35 91.73 148.23 92.87C151.11 93.95 153.39 95.87 155.07 98.63C156.75 101.33 157.59 105.08 157.59 109.88V134H147.06V129.5C145.5 131.6 143.7 133.07 141.66 133.91C139.62 134.69 137.34 135.08 134.82 135.08ZM130.41 122.03C130.41 123.95 131.01 125.3 132.21 126.08C133.47 126.8 135 127.16 136.8 127.16C140.04 127.16 142.56 126.2 144.36 124.28C146.16 122.3 147.24 119.21 147.6 115.01C146.82 115.01 146.07 115.01 145.35 115.01C144.63 114.95 144 114.92 143.46 114.92C138.66 114.92 135.27 115.58 133.29 116.9C131.37 118.22 130.41 119.93 130.41 122.03ZM170.01 92.15H180.54L180.45 98.9C181.59 96.5 183.27 94.61 185.49 93.23C187.71 91.85 190.05 91.16 192.51 91.16C197.19 91.16 201.06 92.75 204.12 95.93L199.8 104.48L199.53 105.2L198.72 104.84C198.54 104.36 198.36 103.88 198.18 103.4C198 102.86 197.55 102.26 196.83 101.6C195.99 100.94 195.09 100.43 194.13 100.07C193.23 99.71 192.24 99.53 191.16 99.53C188.28 99.53 185.76 100.52 183.6 102.5C181.44 104.48 180.36 107.66 180.36 112.04V134H170.01V92.15ZM229.41 134.9C225.69 134.9 222.3 134 219.24 132.2C216.24 130.34 213.87 127.79 212.13 124.55C210.39 121.25 209.52 117.41 209.52 113.03C209.52 108.89 210.39 105.17 212.13 101.87C213.87 98.57 216.24 95.96 219.24 94.04C222.3 92.12 225.69 91.16 229.41 91.16C233.19 91.16 236.58 92.12 239.58 94.04C242.64 95.96 245.04 98.57 246.78 101.87C248.58 105.17 249.48 108.89 249.48 113.03C249.48 117.35 248.58 121.16 246.78 124.46C245.04 127.76 242.64 130.34 239.58 132.2C236.58 134 233.19 134.9 229.41 134.9ZM229.41 126.8C232.29 126.8 234.66 125.54 236.52 123.02C238.38 120.44 239.31 117.11 239.31 113.03C239.31 108.83 238.38 105.5 236.52 103.04C234.66 100.58 232.29 99.35 229.41 99.35C226.65 99.35 224.34 100.58 222.48 103.04C220.62 105.5 219.69 108.83 219.69 113.03C219.69 117.11 220.59 120.44 222.39 123.02C224.25 125.54 226.59 126.8 229.41 126.8ZM316.44 134.18L298.44 77.93H308.52L320.31 117.35L331.29 77.93H341.1L323.28 134.18H316.44ZM349.56 134V125.99H359.82V100.16H350.1V92.15H370.08V125.99H379.44V134H349.56ZM364.5 85.22C362.7 85.22 361.17 84.62 359.91 83.42C358.71 82.22 358.11 80.78 358.11 79.1C358.11 77.36 358.71 75.92 359.91 74.78C361.11 73.58 362.64 72.98 364.5 72.98C366.18 72.98 367.65 73.58 368.91 74.78C370.23 75.98 370.89 77.42 370.89 79.1C370.89 80.78 370.23 82.22 368.91 83.42C367.65 84.62 366.18 85.22 364.5 85.22ZM391.95 73.61H402.93V74.42C402.63 74.78 402.42 75.2 402.3 75.68C402.24 76.1 402.21 76.79 402.21 77.75V97.64C403.71 95.48 405.57 93.86 407.79 92.78C410.01 91.7 412.23 91.16 414.45 91.16C418.47 91.16 421.71 92.54 424.17 95.3C426.63 98 427.86 102.47 427.86 108.71V134H417.6V108.89C417.6 105.23 417.06 102.68 415.98 101.24C414.96 99.74 413.55 98.99 411.75 98.99C409.17 98.99 406.92 99.98 405 101.96C403.14 103.88 402.21 106.55 402.21 109.97V134H391.95V73.61ZM456.39 134.99C452.37 134.99 448.77 134.15 445.59 132.47C442.47 130.79 440.01 128.33 438.21 125.09C436.41 121.85 435.51 117.95 435.51 113.39C435.51 108.71 436.38 104.72 438.12 101.42C439.92 98.12 442.29 95.6 445.23 93.86C448.23 92.06 451.56 91.16 455.22 91.16C458.46 91.16 461.43 91.91 464.13 93.41C466.89 94.91 469.08 97.19 470.7 100.25C472.38 103.25 473.22 107 473.22 111.5C473.22 112.1 473.19 112.82 473.13 113.66C473.13 114.5 473.1 115.22 473.04 115.82H445.32C445.44 118.46 446.07 120.62 447.21 122.3C448.35 123.92 449.76 125.12 451.44 125.9C453.12 126.68 454.92 127.07 456.84 127.07C458.7 127.07 460.47 126.77 462.15 126.17C463.83 125.57 465.39 124.55 466.83 123.11L472.05 128.15C470.01 130.55 467.67 132.29 465.03 133.37C462.39 134.45 459.51 134.99 456.39 134.99ZM445.5 108.17H463.32C463.32 105.23 462.57 102.98 461.07 101.42C459.57 99.86 457.47 99.08 454.77 99.08C452.43 99.08 450.39 99.83 448.65 101.33C446.91 102.77 445.86 105.05 445.5 108.17ZM485.01 92.15H495.54L495.45 98.9C496.59 96.5 498.27 94.61 500.49 93.23C502.71 91.85 505.05 91.16 507.51 91.16C512.19 91.16 516.06 92.75 519.12 95.93L514.8 104.48L514.53 105.2L513.72 104.84C513.54 104.36 513.36 103.88 513.18 103.4C513 102.86 512.55 102.26 511.83 101.6C510.99 100.94 510.09 100.43 509.13 100.07C508.23 99.71 507.24 99.53 506.16 99.53C503.28 99.53 500.76 100.52 498.6 102.5C496.44 104.48 495.36 107.66 495.36 112.04V134H485.01V92.15ZM526.32 149.03L526.23 92.06H536.31V97.91C537.63 95.57 539.31 93.86 541.35 92.78C543.39 91.7 545.64 91.16 548.1 91.16C551.16 91.16 553.92 92 556.38 93.68C558.9 95.3 560.91 97.76 562.41 101.06C563.91 104.3 564.66 108.35 564.66 113.21C564.66 118.13 563.88 122.21 562.32 125.45C560.76 128.69 558.69 131.12 556.11 132.74C553.59 134.3 550.86 135.08 547.92 135.08C545.7 135.08 543.57 134.69 541.53 133.91C539.49 133.13 537.87 131.96 536.67 130.4V149.03H526.32ZM545.13 127.16C546.87 127.16 548.46 126.71 549.9 125.81C551.34 124.91 552.48 123.41 553.32 121.31C554.16 119.21 554.58 116.33 554.58 112.67C554.58 108.53 553.77 105.26 552.15 102.86C550.59 100.46 548.43 99.23 545.67 99.17C542.79 99.11 540.54 100.25 538.92 102.59C537.36 104.87 536.58 108.62 536.58 113.84C536.7 122.72 539.55 127.16 545.13 127.16ZM591.39 134.99C587.37 134.99 583.77 134.15 580.59 132.47C577.47 130.79 575.01 128.33 573.21 125.09C571.41 121.85 570.51 117.95 570.51 113.39C570.51 108.71 571.38 104.72 573.12 101.42C574.92 98.12 577.29 95.6 580.23 93.86C583.23 92.06 586.56 91.16 590.22 91.16C593.46 91.16 596.43 91.91 599.13 93.41C601.89 94.91 604.08 97.19 605.7 100.25C607.38 103.25 608.22 107 608.22 111.5C608.22 112.1 608.19 112.82 608.13 113.66C608.13 114.5 608.1 115.22 608.04 115.82H580.32C580.44 118.46 581.07 120.62 582.21 122.3C583.35 123.92 584.76 125.12 586.44 125.9C588.12 126.68 589.92 127.07 591.84 127.07C593.7 127.07 595.47 126.77 597.15 126.17C598.83 125.57 600.39 124.55 601.83 123.11L607.05 128.15C605.01 130.55 602.67 132.29 600.03 133.37C597.39 134.45 594.51 134.99 591.39 134.99ZM580.5 108.17H598.32C598.32 105.23 597.57 102.98 596.07 101.42C594.57 99.86 592.47 99.08 589.77 99.08C587.43 99.08 585.39 99.83 583.65 101.33C581.91 102.77 580.86 105.05 580.5 108.17ZM635.31 134.99C631.47 134.99 627.93 134.48 624.69 133.46C621.45 132.44 618.57 130.73 616.05 128.33L620.55 120.05L620.91 119.33L621.63 119.78C621.81 120.2 621.99 120.68 622.17 121.22C622.35 121.7 622.8 122.27 623.52 122.93C625.02 124.19 626.7 125.18 628.56 125.9C630.48 126.62 632.79 126.98 635.49 126.98C638.01 126.98 639.96 126.56 641.34 125.72C642.72 124.88 643.41 123.77 643.41 122.39C643.41 121.01 642.63 119.9 641.07 119.06C639.57 118.22 637.08 117.29 633.6 116.27C629.04 115.07 625.41 113.45 622.71 111.41C620.01 109.37 618.66 106.64 618.66 103.22C618.66 99.8 620.13 96.95 623.07 94.67C626.07 92.33 630.09 91.16 635.13 91.16C642.03 91.16 647.64 93.29 651.96 97.55L647.01 104.48L646.38 105.2L645.75 104.66C645.69 104.18 645.54 103.73 645.3 103.31C645.12 102.89 644.67 102.32 643.95 101.6C642.75 100.76 641.37 100.13 639.81 99.71C638.31 99.23 636.81 98.99 635.31 98.99C633.27 98.99 631.5 99.32 630 99.98C628.56 100.64 627.84 101.66 627.84 103.04C627.84 104.24 628.62 105.26 630.18 106.1C631.74 106.94 634.41 107.84 638.19 108.8C643.23 110.06 646.89 111.74 649.17 113.84C651.45 115.88 652.59 118.52 652.59 121.76C652.59 124.16 651.93 126.38 650.61 128.42C649.29 130.4 647.34 131.99 644.76 133.19C642.24 134.39 639.09 134.99 635.31 134.99ZM676.08 135.08C671.82 135.08 668.31 133.64 665.55 130.76C662.79 127.88 661.41 123.2 661.41 116.72V92.15H671.67V116.72C671.67 120.44 672.27 123.08 673.47 124.64C674.73 126.14 676.29 126.89 678.15 126.89C680.67 126.89 682.71 125.99 684.27 124.19C685.89 122.39 686.7 119.66 686.7 116V92.15H696.87V127.34C696.87 128.66 696.9 129.86 696.96 130.94C697.08 131.96 697.35 132.98 697.77 134H688.5C688.02 133.1 687.75 132.2 687.69 131.3C687.63 130.4 687.6 129.5 687.6 128.6C686.34 130.76 684.66 132.38 682.56 133.46C680.52 134.54 678.36 135.08 676.08 135.08ZM719.82 135.08C715.2 135.08 711.6 134 709.02 131.84C706.5 129.68 705.24 126.83 705.24 123.29C705.24 118.85 707.22 115.19 711.18 112.31C715.2 109.37 721.02 107.9 728.64 107.9C729.06 107.9 729.6 107.9 730.26 107.9C730.98 107.9 731.73 107.93 732.51 107.99C732.09 104.51 731.1 102.17 729.54 100.97C727.98 99.71 725.88 99.08 723.24 99.08C721.32 99.08 719.52 99.41 717.84 100.07C716.16 100.67 714.48 101.81 712.8 103.49L707.22 97.37C709.62 95.15 712.23 93.56 715.05 92.6C717.87 91.64 720.75 91.16 723.69 91.16C727.17 91.16 730.35 91.73 733.23 92.87C736.11 93.95 738.39 95.87 740.07 98.63C741.75 101.33 742.59 105.08 742.59 109.88V134H732.06V129.5C730.5 131.6 728.7 133.07 726.66 133.91C724.62 134.69 722.34 135.08 719.82 135.08ZM715.41 122.03C715.41 123.95 716.01 125.3 717.21 126.08C718.47 126.8 720 127.16 721.8 127.16C725.04 127.16 727.56 126.2 729.36 124.28C731.16 122.3 732.24 119.21 732.6 115.01C731.82 115.01 731.07 115.01 730.35 115.01C729.63 114.95 729 114.92 728.46 114.92C723.66 114.92 720.27 115.58 718.29 116.9C716.37 118.22 715.41 119.93 715.41 122.03ZM754.56 134V125.99H764.82V100.16H755.1V92.15H775.08V125.99H784.44V134H754.56ZM769.5 85.22C767.7 85.22 766.17 84.62 764.91 83.42C763.71 82.22 763.11 80.78 763.11 79.1C763.11 77.36 763.71 75.92 764.91 74.78C766.11 73.58 767.64 72.98 769.5 72.98C771.18 72.98 772.65 73.58 773.91 74.78C775.23 75.98 775.89 77.42 775.89 79.1C775.89 80.78 775.23 82.22 773.91 83.42C772.65 84.62 771.18 85.22 769.5 85.22ZM796.95 134V92.15H807.12V97.91C808.62 95.87 810.36 94.25 812.34 93.05C814.32 91.79 816.6 91.16 819.18 91.16C821.58 91.16 823.8 91.76 825.84 92.96C827.94 94.1 829.62 95.96 830.88 98.54C832.14 101.12 832.77 104.51 832.77 108.71V134H822.6V108.89C822.6 105.47 822.06 102.98 820.98 101.42C819.9 99.8 818.4 98.99 816.48 98.99C814.98 98.99 813.51 99.41 812.07 100.25C810.63 101.03 809.43 102.17 808.47 103.67C807.57 105.17 807.12 106.97 807.12 109.07V134H796.95ZM861.39 134.99C857.37 134.99 853.77 134.15 850.59 132.47C847.47 130.79 845.01 128.33 843.21 125.09C841.41 121.85 840.51 117.95 840.51 113.39C840.51 108.71 841.38 104.72 843.12 101.42C844.92 98.12 847.29 95.6 850.23 93.86C853.23 92.06 856.56 91.16 860.22 91.16C863.46 91.16 866.43 91.91 869.13 93.41C871.89 94.91 874.08 97.19 875.7 100.25C877.38 103.25 878.22 107 878.22 111.5C878.22 112.1 878.19 112.82 878.13 113.66C878.13 114.5 878.1 115.22 878.04 115.82H850.32C850.44 118.46 851.07 120.62 852.21 122.3C853.35 123.92 854.76 125.12 856.44 125.9C858.12 126.68 859.92 127.07 861.84 127.07C863.7 127.07 865.47 126.77 867.15 126.17C868.83 125.57 870.39 124.55 871.83 123.11L877.05 128.15C875.01 130.55 872.67 132.29 870.03 133.37C867.39 134.45 864.51 134.99 861.39 134.99ZM850.5 108.17H868.32C868.32 105.23 867.57 102.98 866.07 101.42C864.57 99.86 862.47 99.08 859.77 99.08C857.43 99.08 855.39 99.83 853.65 101.33C851.91 102.77 850.86 105.05 850.5 108.17ZM908.91 134.9C905.67 134.9 903 134.21 900.9 132.83C898.8 131.39 897.27 129.02 896.31 125.72C895.35 122.42 894.99 117.95 895.23 112.31L895.68 100.16H887.13L887.31 92.15H896.04L896.4 82.25L906.93 80.9L907.74 80.81L907.83 81.62C907.53 82.04 907.26 82.49 907.02 82.97C906.84 83.39 906.72 84.08 906.66 85.04L906.03 92.15H919.53L919.44 100.16H905.94L905.4 112.13C905.22 116.03 905.34 119.03 905.76 121.13C906.24 123.23 906.93 124.7 907.83 125.54C908.79 126.32 909.93 126.71 911.25 126.71C913.17 126.71 914.88 126.32 916.38 125.54C917.94 124.76 919.38 123.86 920.7 122.84L922.86 130.22C920.76 131.72 918.57 132.89 916.29 133.73C914.01 134.51 911.55 134.9 908.91 134.9ZM953.91 134.9C950.67 134.9 948 134.21 945.9 132.83C943.8 131.39 942.27 129.02 941.31 125.72C940.35 122.42 939.99 117.95 940.23 112.31L940.68 100.16H932.13L932.31 92.15H941.04L941.4 82.25L951.93 80.9L952.74 80.81L952.83 81.62C952.53 82.04 952.26 82.49 952.02 82.97C951.84 83.39 951.72 84.08 951.66 85.04L951.03 92.15H964.53L964.44 100.16H950.94L950.4 112.13C950.22 116.03 950.34 119.03 950.76 121.13C951.24 123.23 951.93 124.7 952.83 125.54C953.79 126.32 954.93 126.71 956.25 126.71C958.17 126.71 959.88 126.32 961.38 125.54C962.94 124.76 964.38 123.86 965.7 122.84L967.86 130.22C965.76 131.72 963.57 132.89 961.29 133.73C959.01 134.51 956.55 134.9 953.91 134.9ZM989.82 135.08C985.2 135.08 981.6 134 979.02 131.84C976.5 129.68 975.24 126.83 975.24 123.29C975.24 118.85 977.22 115.19 981.18 112.31C985.2 109.37 991.02 107.9 998.64 107.9C999.06 107.9 999.6 107.9 1000.26 107.9C1000.98 107.9 1001.73 107.93 1002.51 107.99C1002.09 104.51 1001.1 102.17 999.54 100.97C997.98 99.71 995.88 99.08 993.24 99.08C991.32 99.08 989.52 99.41 987.84 100.07C986.16 100.67 984.48 101.81 982.8 103.49L977.22 97.37C979.62 95.15 982.23 93.56 985.05 92.6C987.87 91.64 990.75 91.16 993.69 91.16C997.17 91.16 1000.35 91.73 1003.23 92.87C1006.11 93.95 1008.39 95.87 1010.07 98.63C1011.75 101.33 1012.59 105.08 1012.59 109.88V134H1002.06V129.5C1000.5 131.6 998.7 133.07 996.66 133.91C994.62 134.69 992.34 135.08 989.82 135.08ZM985.41 122.03C985.41 123.95 986.01 125.3 987.21 126.08C988.47 126.8 990 127.16 991.8 127.16C995.04 127.16 997.56 126.2 999.36 124.28C1001.16 122.3 1002.24 119.21 1002.6 115.01C1001.82 115.01 1001.07 115.01 1000.35 115.01C999.63 114.95 999 114.92 998.46 114.92C993.66 114.92 990.27 115.58 988.29 116.9C986.37 118.22 985.41 119.93 985.41 122.03ZM1035 115.28L1032.57 81.53C1032.39 78.83 1032.93 76.85 1034.19 75.59C1035.45 74.33 1036.95 73.7 1038.69 73.7C1040.43 73.7 1041.93 74.33 1043.19 75.59C1044.45 76.79 1044.99 78.89 1044.81 81.89L1042.2 115.28H1035ZM1038.51 134.9C1036.53 134.9 1034.85 134.27 1033.47 133.01C1032.09 131.69 1031.4 130.1 1031.4 128.24C1031.4 126.38 1032.09 124.76 1033.47 123.38C1034.85 122 1036.53 121.31 1038.51 121.31C1040.55 121.31 1042.26 122.03 1043.64 123.47C1045.08 124.85 1045.8 126.44 1045.8 128.24C1045.8 130.04 1045.05 131.6 1043.55 132.92C1042.11 134.24 1040.43 134.9 1038.51 134.9Z" fill="black"/>
</svg>
